<?xml version="1.0" standalone="no"?>
<!DOCTYPE svg PUBLIC "-//W3C//DTD SVG 20010904//EN"
 "http://www.w3.org/TR/2001/REC-SVG-20010904/DTD/svg10.dtd">
<svg version="1.0" xmlns="http://www.w3.org/2000/svg"
 width="300.000000pt" height="300.000000pt" viewBox="0 0 300.000000 300.000000"
 preserveAspectRatio="xMidYMid meet">
<metadata>
Created by potrace 1.10, written by Peter Selinger 2001-2011
</metadata>
<g transform="translate(0.000000,300.000000) scale(0.100000,-0.100000)"
fill="#000000" stroke="none">
<path d="M1978 2456 c-163 -45 -259 -230 -246 -472 l3 -59 18 39 c10 21 31 90
47 152 16 62 36 127 45 143 22 44 73 100 106 117 36 18 116 18 153 -1 36 -19
45 -12 20 16 l-19 21 39 -16 c47 -20 93 -69 106 -116 14 -48 13 -133 -2 -167
-23 -54 -80 -124 -121 -147 -54 -31 -154 -56 -223 -56 -53 0 -55 1 -48 23 30
96 91 178 151 204 19 7 37 21 40 29 8 22 -28 55 -67 63 l-33 6 31 36 c22 25
48 41 91 54 68 20 71 35 7 35 -53 0 -125 -43 -160 -97 -26 -39 -60 -123 -49
-123 3 0 18 11 35 25 31 26 98 34 128 15 12 -8 9 -10 -13 -10 -67 0 -131 -65
-179 -183 -16 -39 -40 -86 -54 -105 -15 -18 -24 -35 -22 -38 3 -2 21 3 41 11
20 8 62 15 94 15 226 1 389 128 401 315 4 58 0 80 -18 123 -51 118 -181 182
-302 148z"/>
<path d="M1395 2443 c-80 -42 -143 -136 -152 -229 -3 -30 -3 -54 -1 -54 3 0
25 11 49 24 98 54 317 114 374 104 29 -6 31 2 9 45 -21 41 -71 95 -106 113
-36 19 -135 17 -173 -3z m203 -69 c13 -15 21 -31 19 -37 -2 -6 -30 -16 -63
-23 -34 -7 -101 -26 -149 -43 -49 -17 -96 -31 -103 -31 -34 0 24 112 78 150
67 48 168 40 218 -16z"/>
<path d="M1570 2210 c-276 -59 -561 -244 -763 -495 -98 -122 -131 -173 -157
-243 -19 -51 -19 -55 -4 -88 21 -44 168 -175 232 -208 70 -36 157 -49 275 -44
119 6 147 -3 219 -76 57 -58 96 -136 111 -219 l11 -65 27 38 c15 21 46 53 68
71 23 18 41 38 41 45 0 8 -12 39 -27 71 -15 32 -27 63 -28 68 -3 33 -57 69
-175 115 -81 31 -89 32 -170 24 -47 -4 -125 -8 -175 -8 -78 -1 -98 3 -150 27
-62 29 -135 91 -135 115 0 7 14 25 30 39 27 22 39 60 24 75 -3 4 -20 2 -37 -3
-21 -6 -48 -6 -79 2 -48 11 -65 29 -29 29 12 0 41 31 82 87 119 164 304 339
464 441 111 70 349 162 417 162 19 0 31 8 42 30 14 29 14 30 -7 29 -12 0 -60
-9 -107 -19z m-820 -810 c12 -7 11 -12 -5 -30 l-20 -22 -17 22 c-10 12 -18 26
-18 31 0 12 41 11 60 -1z m670 -268 c87 -34 108 -49 125 -88 49 -113 47 -100
19 -133 -32 -38 -52 -39 -60 -3 -16 68 -92 171 -174 235 l-35 27 30 -6 c17 -4
59 -18 95 -32z"/>
<path d="M2307 1993 c-17 -34 -17 -36 3 -78 70 -145 39 -347 -83 -533 -63 -98
-172 -205 -367 -362 -85 -69 -190 -160 -233 -204 -75 -75 -197 -245 -197 -273
0 -8 25 15 55 51 59 69 213 197 336 281 319 214 453 335 535 481 57 102 75
167 81 289 6 130 -10 207 -62 300 -50 88 -48 87 -68 48z m90 -368 c-11 -160
-64 -272 -196 -408 -94 -98 -263 -228 -351 -271 l-35 -17 26 23 c15 13 35 30
45 38 156 124 316 283 375 375 58 89 97 187 118 293 18 92 26 77 18 -33z"/>
<path d="M700 1946 c0 -46 57 -236 70 -236 20 0 17 23 -16 126 -34 107 -54
147 -54 110z"/>
<path d="M570 1917 c-1 -24 138 -267 152 -267 19 0 4 41 -46 125 -54 89 -105
157 -106 142z"/>
<path d="M1300 1863 c-64 -23 -83 -113 -34 -158 61 -56 164 -12 164 70 0 66
-67 111 -130 88z m81 -34 c9 -17 8 -24 -4 -36 -21 -22 -57 -8 -57 22 0 38 43
47 61 14z m-76 -60 c4 -5 18 -14 32 -20 26 -9 23 -29 -4 -29 -21 0 -53 29 -53
47 0 16 16 17 25 2z"/>
<path d="M2041 1821 l-43 -18 31 -12 c42 -18 117 -101 147 -164 l25 -52 -6 48
c-12 87 -71 218 -98 216 -7 -1 -32 -9 -56 -18z"/>
<path d="M545 1738 c32 -47 133 -141 144 -134 15 10 -31 69 -92 118 -55 43
-75 49 -52 16z"/>
<path d="M1362 1579 c-86 -11 -219 -45 -294 -75 -73 -30 -80 -35 -69 -52 5 -9
27 -5 89 18 148 54 317 83 487 83 111 0 162 -4 195 -15 25 -9 54 -19 65 -22
11 -4 4 2 -16 13 -96 54 -278 74 -457 50z"/>
<path d="M1941 1556 c35 -60 43 -245 14 -318 -4 -10 -3 -18 2 -18 5 0 22 25
38 56 23 45 28 69 29 128 1 77 -9 102 -62 159 -35 37 -45 34 -21 -7z"/>
<path d="M1195 1444 c-11 -2 -45 -9 -75 -15 -81 -15 -90 -19 -90 -35 0 -17 5
-17 105 1 96 17 318 19 418 4 69 -11 144 -42 232 -97 39 -24 40 -24 20 -2 -34
39 -135 99 -204 121 -53 17 -97 22 -226 25 -88 1 -169 1 -180 -2z"/>
<path d="M1073 1343 c-18 -2 -33 -10 -33 -17 0 -10 36 -15 143 -19 159 -6 263
-29 359 -77 70 -34 72 -19 4 27 -101 69 -309 106 -473 86z"/>
<path d="M1741 1035 c-66 -53 -98 -85 -86 -85 6 1 42 30 80 65 81 74 83 82 6
20z"/>
</g>
</svg>
