<?xml version="1.0" encoding="UTF-8"?><svg id="Layer_1" xmlns="http://www.w3.org/2000/svg" viewBox="0 0 252.75 255.509"><defs><style>.cls-1{stroke:#000;stroke-miterlimit:10;stroke-width:4px;}</style></defs><path class="cls-1" d="M190.583,3.189c-21.311,5.883-33.863,30.071-32.163,61.711l.392,7.714,2.353-5.099c1.307-2.746,4.053-11.767,6.145-19.873s4.707-16.604,5.883-18.696c2.876-5.753,9.544-13.074,13.859-15.297,4.707-2.353,15.166-2.353,20.004.131,4.707,2.484,5.883,1.569,2.615-2.092l-2.484-2.746,5.099,2.092c6.145,2.615,12.159,9.021,13.859,15.166,1.83,6.276,1.7,17.389-.261,21.834-3.007,7.06-10.459,16.212-15.82,19.219-7.06,4.053-20.135,7.322-29.156,7.322-6.929,0-7.191-.131-6.276-3.007,3.922-12.551,11.898-23.272,19.742-26.672,2.484-.915,4.838-2.746,5.23-3.792,1.046-2.876-3.661-7.191-8.76-8.237l-4.315-.784,4.053-4.707c2.876-3.269,6.276-5.36,11.898-7.06,8.891-2.615,9.283-4.576.915-4.576-6.929,0-16.343,5.622-20.919,12.682-3.399,5.099-7.845,16.081-6.406,16.081.392,0,2.353-1.438,4.576-3.269,4.053-3.399,12.813-4.445,16.735-1.961,1.569,1.046,1.177,1.307-1.7,1.307-8.76,0-17.127,8.498-23.403,23.926-2.092,5.099-5.23,11.244-7.06,13.728-1.961,2.353-3.138,4.576-2.876,4.968.392.261,2.746-.392,5.36-1.438s8.106-1.961,12.29-1.961c29.548-.131,50.859-16.735,52.428-41.184.523-7.583,0-10.459-2.353-16.081-6.668-15.428-23.665-23.795-39.485-19.35Z"/><path class="cls-1" d="M114.359,4.888c-10.459,5.491-18.696,17.781-19.873,29.94-.392,3.922-.392,7.06-.131,7.06.392,0,3.269-1.438,6.406-3.138,12.813-7.06,41.446-14.905,48.898-13.597,3.792.784,4.053-.261,1.177-5.883-2.746-5.36-9.283-12.421-13.859-14.774-4.707-2.484-17.65-2.223-22.619.392ZM140.9,13.91c1.7,1.961,2.746,4.053,2.484,4.838s-3.922,2.092-8.237,3.007c-4.445.915-13.205,3.399-19.481,5.622-6.406,2.223-12.551,4.053-13.467,4.053-4.445,0,3.138-14.643,10.198-19.612,8.76-6.276,21.965-5.23,28.502,2.092Z"/><path class="cls-1" d="M137.239,35.352c-36.085,7.714-73.347,31.901-99.757,64.718-12.813,15.951-17.127,22.619-20.527,31.771-2.484,6.668-2.484,7.191-.523,11.505,2.746,5.753,21.965,22.88,30.333,27.195,9.152,4.707,20.527,6.406,35.955,5.753,15.559-.784,19.219.392,28.633,9.937,7.452,7.583,12.551,17.781,14.513,28.633l1.438,8.498,3.53-4.968c1.961-2.746,6.014-6.929,8.891-9.283,3.007-2.353,5.36-4.968,5.36-5.883,0-1.046-1.569-5.099-3.53-9.283s-3.53-8.237-3.661-8.891c-.392-4.315-7.452-9.021-22.88-15.036-10.59-4.053-11.636-4.184-22.226-3.138-6.145.523-16.343,1.046-22.88,1.046-10.198.131-12.813-.392-19.612-3.53-8.106-3.792-17.65-11.898-17.65-15.036,0-.915,1.83-3.269,3.922-5.099,3.53-2.876,5.099-7.845,3.138-9.806-.392-.523-2.615-.261-4.838.392-2.746.784-6.276.784-10.329-.261-6.276-1.438-8.498-3.792-3.792-3.792,1.569,0,5.36-4.053,10.721-11.375,15.559-21.442,39.746-44.322,60.665-57.658,14.513-9.152,45.63-21.18,54.52-21.18,2.484,0,4.053-1.046,5.491-3.922,1.83-3.792,1.83-3.922-.915-3.792-1.569,0-7.845,1.177-13.99,2.484ZM30.03,141.254c1.569.915,1.438,1.569-.654,3.922l-2.615,2.876-2.223-2.876c-1.307-1.569-2.353-3.399-2.353-4.053,0-1.569,5.36-1.438,7.845.131ZM117.628,176.293c11.375,4.445,14.12,6.406,16.343,11.505,6.406,14.774,6.145,13.074,2.484,17.389-4.184,4.968-6.799,5.099-7.845.392-2.092-8.891-12.028-22.357-22.749-30.725l-4.576-3.53,3.922.784c2.223.523,7.714,2.353,12.421,4.184Z"/><path class="cls-1" d="M233.598,63.723c-2.223,4.445-2.223,4.707.392,10.198,9.152,18.958,5.099,45.368-10.852,69.686-8.237,12.813-22.488,26.802-47.983,47.329-11.113,9.021-24.841,20.919-30.463,26.672-9.806,9.806-25.757,32.032-25.757,35.693,0,1.046,3.269-1.961,7.191-6.668,7.714-9.021,27.848-25.757,43.93-36.739,41.707-27.979,59.227-43.799,69.948-62.888,7.452-13.336,9.806-21.834,10.59-37.785.784-16.997-1.307-27.064-8.106-39.223-6.537-11.505-6.276-11.375-8.891-6.276ZM245.364,111.837c-1.438,20.919-8.368,35.562-25.626,53.343-12.29,12.813-34.386,29.81-45.891,35.432l-4.576,2.223,3.399-3.007c1.961-1.7,4.576-3.922,5.883-4.968,20.396-16.212,41.315-37,49.029-49.029,7.583-11.636,12.682-24.449,15.428-38.308,2.353-12.028,3.399-10.067,2.353,4.315Z"/><path class="cls-1" d="M23.492,69.868c0,6.014,7.452,30.856,9.152,30.856,2.615,0,2.223-3.007-2.092-16.474-4.445-13.99-7.06-19.219-7.06-14.382Z"/><path class="cls-1" d="M6.496,73.659c-.131,3.138,18.043,34.909,19.873,34.909,2.484,0,.523-5.36-6.014-16.343-7.06-11.636-13.728-20.527-13.859-18.566Z"/><path class="cls-1" d="M101.939,80.72c-8.368,3.007-10.852,14.774-4.445,20.658,7.975,7.322,21.442,1.569,21.442-9.152,0-8.629-8.76-14.513-16.997-11.505ZM112.529,85.165c1.177,2.223,1.046,3.138-.523,4.707-2.746,2.876-7.452,1.046-7.452-2.876,0-4.968,5.622-6.145,7.975-1.83ZM102.592,93.01c.523.654,2.353,1.83,4.184,2.615,3.399,1.177,3.007,3.792-.523,3.792-2.746,0-6.929-3.792-6.929-6.145,0-2.092,2.092-2.223,3.269-.261Z"/><path class="cls-1" d="M198.82,86.211l-5.622,2.353,4.053,1.569c5.491,2.353,15.297,13.205,19.219,21.442l3.269,6.799-.784-6.276c-1.569-11.375-9.283-28.502-12.813-28.241-.915.131-4.184,1.177-7.322,2.353Z"/><path class="cls-1" d="M3.227,97.063c4.184,6.145,17.389,18.435,18.827,17.52,1.961-1.307-4.053-9.021-12.028-15.428-7.191-5.622-9.806-6.406-6.799-2.092Z"/><path class="cls-1" d="M110.045,117.851c-11.244,1.438-28.633,5.883-38.439,9.806-9.544,3.922-10.459,4.576-9.021,6.799.654,1.177,3.53.654,11.636-2.353,19.35-7.06,41.446-10.852,63.672-10.852,14.513,0,21.18.523,25.495,1.961,3.269,1.177,7.06,2.484,8.498,2.876,1.438.523.523-.261-2.092-1.7-12.551-7.06-36.347-9.675-59.75-6.537Z"/><path class="cls-1" d="M185.745,120.858c4.576,7.845,5.622,32.032,1.83,41.576-.523,1.307-.392,2.353.261,2.353s2.876-3.269,4.968-7.322c3.007-5.883,3.661-9.021,3.792-16.735.131-10.067-1.177-13.336-8.106-20.788-4.576-4.838-5.883-4.445-2.746.915Z"/><path class="cls-1" d="M88.211,135.501c-1.438.261-5.883,1.177-9.806,1.961-10.59,1.961-11.767,2.484-11.767,4.576,0,2.223.654,2.223,13.728-.131,12.551-2.223,41.576-2.484,54.651-.523,9.021,1.438,18.827,5.491,30.333,12.682,5.099,3.138,5.23,3.138,2.615.261-4.445-5.099-17.65-12.944-26.672-15.82-6.929-2.223-12.682-2.876-29.548-3.269-11.505-.131-22.096-.131-23.534.261Z"/><path class="cls-1" d="M72.26,148.706c-2.353.261-4.315,1.307-4.315,2.223,0,1.307,4.707,1.961,18.696,2.484,20.788.784,34.386,3.792,46.937,10.067,9.152,4.445,9.414,2.484.523-3.53-13.205-9.021-40.4-13.859-61.842-11.244Z"/><path class="cls-1" d="M159.597,188.975c-8.629,6.929-12.813,11.113-11.244,11.113.784-.131,5.491-3.922,10.459-8.498,10.59-9.675,10.852-10.721.784-2.615Z"/></svg>